<svg width="122" height="72" viewBox="0 0 122 72" fill="none" xmlns="http://www.w3.org/2000/svg">
<path d="M71.545 52.648C71.5663 52.648 71.577 52.68 71.577 52.744C71.577 52.808 71.4917 52.9893 71.321 53.288C70.6597 54.3547 69.6997 55.3467 68.441 56.264C67.1823 57.16 65.9983 57.608 64.889 57.608C63.3743 57.608 62.617 56.6267 62.617 54.664C62.617 54.0027 62.6917 53.2987 62.841 52.552C62.649 52.3813 62.4783 52.1467 62.329 51.848C62.3503 51.8693 62.4037 51.9013 62.489 51.944C62.5743 51.9653 62.649 51.9973 62.713 52.04C62.7983 52.0613 62.8837 52.0827 62.969 52.104C63.1823 51.0587 63.833 49.9813 64.921 48.872C66.009 47.7627 67.065 47.208 68.089 47.208C68.3237 47.208 68.441 47.24 68.441 47.304C68.441 47.3467 68.2917 47.4533 67.993 47.624C67.2037 48.0507 66.4677 48.712 65.785 49.608C65.0597 50.504 64.537 51.4 64.217 52.296L64.281 52.36C65.305 52.36 66.3717 51.8693 67.481 50.888C68.5903 49.9067 69.145 48.904 69.145 47.88C69.145 47.5813 69.0597 47.304 68.889 47.048C68.7397 46.7707 68.4837 46.632 68.121 46.632C67.7583 46.632 67.2997 46.8027 66.745 47.144C66.2117 47.464 65.913 47.624 65.849 47.624C65.8063 47.624 65.785 47.6133 65.785 47.592C65.785 47.336 66.1263 47.0693 66.809 46.792C67.513 46.5147 68.0783 46.376 68.505 46.376C68.953 46.376 69.337 46.5147 69.657 46.792C69.977 47.0693 70.137 47.4533 70.137 47.944C70.137 49.0747 69.433 50.1413 68.025 51.144C66.6383 52.1467 65.3263 52.7013 64.089 52.808C63.9183 53.32 63.833 53.8107 63.833 54.28C63.833 56.0507 64.473 56.936 65.753 56.936C66.7343 56.936 67.7157 56.552 68.697 55.784C69.6783 54.9947 70.4677 54.0987 71.065 53.096C71.257 52.7973 71.417 52.648 71.545 52.648ZM79.8945 52.232C79.9585 52.232 79.9905 52.2747 79.9905 52.36C79.9905 52.4453 79.9692 52.52 79.9265 52.584C79.2012 53.8 78.3052 54.5147 77.2385 54.728C77.1745 55.4747 76.9398 56.104 76.5345 56.616C76.1505 57.128 75.5105 57.384 74.6145 57.384C73.7398 57.384 72.9078 56.968 72.1185 56.136C71.3292 55.2827 70.9345 54.3547 70.9345 53.352C70.9345 52.6907 71.1052 52.36 71.4465 52.36C71.6598 52.36 71.8732 52.52 72.0865 52.84C72.7265 51.3467 73.6332 49.6613 74.8065 47.784C75.5532 46.632 76.4278 46.056 77.4305 46.056C77.6438 46.056 77.8892 46.1413 78.1665 46.312C78.4652 46.4613 78.6145 46.632 78.6145 46.824C78.6145 46.9733 78.5185 47.048 78.3265 47.048C78.1558 47.048 78.0278 47.0373 77.9425 47.016H77.6865C77.1958 47.016 76.7692 47.1653 76.4065 47.464C76.0652 47.7413 75.8945 48.04 75.8945 48.36C75.8945 48.6587 75.9265 48.904 75.9905 49.096L76.7585 51.656C77.0572 52.7227 77.2065 53.5973 77.2065 54.28C77.7825 54.1947 78.2305 54.0133 78.5505 53.736C78.8918 53.4587 79.2758 53 79.7025 52.36C79.7665 52.2747 79.8305 52.232 79.8945 52.232ZM75.8945 54.696C75.9158 54.5893 75.9265 54.3653 75.9265 54.024C75.9265 53.6827 75.7665 52.8827 75.4465 51.624C75.1478 50.3653 74.9985 49.576 74.9985 49.256C74.9985 48.936 75.0092 48.7333 75.0305 48.648C74.4758 49.224 73.5692 50.76 72.3105 53.256C73.2065 53.768 73.8785 54.1307 74.3265 54.344C74.7745 54.536 75.2972 54.6533 75.8945 54.696ZM74.1665 56.328C74.9985 56.328 75.5638 55.912 75.8625 55.08C74.1558 55.08 72.8545 54.728 71.9585 54.024C72.0012 54.5147 72.2572 55.0267 72.7265 55.56C73.1958 56.072 73.6758 56.328 74.1665 56.328ZM87.1555 48.392C87.1555 48.776 87.0702 49.2347 86.8995 49.768C86.7288 50.28 86.5048 50.536 86.2275 50.536C85.9502 50.536 85.8115 50.376 85.8115 50.056C85.8115 49.928 85.8755 49.64 86.0035 49.192C86.1528 48.744 86.2275 48.3707 86.2275 48.072C86.2275 47.112 85.8435 46.632 85.0755 46.632C84.6915 46.632 84.2008 46.792 83.6035 47.112C83.0275 47.4107 82.7075 47.56 82.6435 47.56C82.5795 47.56 82.5475 47.528 82.5475 47.464C82.5475 47.1653 82.9102 46.8987 83.6355 46.664C84.3822 46.4293 84.9795 46.312 85.4275 46.312C86.5795 46.312 87.1555 47.0053 87.1555 48.392ZM81.2995 57.896C79.8275 57.896 79.0915 57.064 79.0915 55.4C79.0915 53.736 79.6782 51.976 80.8515 50.12C82.0248 48.2427 83.3795 47.304 84.9155 47.304C85.1502 47.304 85.2675 47.3467 85.2675 47.432C85.2675 47.496 85.0542 47.656 84.6275 47.912C83.5822 48.552 82.6328 49.544 81.7795 50.888C80.9475 52.232 80.5315 53.4587 80.5315 54.568C80.5315 56.296 81.1822 57.16 82.4835 57.16C83.2728 57.16 84.1475 56.8507 85.1075 56.232C86.4302 55.3787 87.4755 54.344 88.2435 53.128C88.4355 52.808 88.5848 52.648 88.6915 52.648L88.7555 52.712C88.7555 52.7973 88.6595 52.9787 88.4675 53.256C87.6995 54.4293 86.6115 55.496 85.2035 56.456C83.8168 57.416 82.5155 57.896 81.2995 57.896ZM98.8748 52.968C99.0028 52.7973 99.0988 52.712 99.1628 52.712C99.2268 52.712 99.2588 52.7653 99.2588 52.872C99.2588 52.9573 99.2161 53.0533 99.1308 53.16C97.2108 56.0187 95.7281 57.448 94.6828 57.448C94.1068 57.448 93.6694 57.1813 93.3708 56.648C93.0934 56.0933 92.9548 55.4853 92.9548 54.824C92.9548 54.1413 93.0614 53.3627 93.2748 52.488C91.9308 55.4747 90.5441 56.968 89.1148 56.968C88.2401 56.968 87.8027 56.4027 87.8027 55.272C87.8027 53.4587 88.6774 51.5707 90.4268 49.608C92.1974 47.6453 93.9574 46.664 95.7068 46.664C96.5388 46.664 96.9548 47.0267 96.9548 47.752C96.9548 48.648 96.3574 49.544 95.1628 50.44C94.5441 51.976 94.2348 53.4587 94.2348 54.888C94.2348 56.296 94.5014 57 95.0348 57C95.7388 57 97.0188 55.656 98.8748 52.968ZM95.4828 49.352C95.8241 48.8827 95.9948 48.4133 95.9948 47.944C95.9948 47.4747 95.7708 47.24 95.3228 47.24C94.2561 47.24 92.8588 48.296 91.1308 50.408C89.4028 52.4987 88.5388 54.1093 88.5388 55.24C88.5388 55.7307 88.7734 55.976 89.2428 55.976C90.5868 55.976 91.8881 54.4827 93.1468 51.496C92.7628 51.6027 92.5068 51.656 92.3788 51.656C92.2508 51.656 92.1868 51.624 92.1868 51.56C92.1868 51.4533 92.3361 51.3467 92.6348 51.24L93.6268 50.664C93.6694 50.3013 93.8934 49.832 94.2988 49.256C94.7041 48.6587 95.0881 48.36 95.4508 48.36C95.5788 48.36 95.6428 48.4453 95.6428 48.616C95.6428 48.7867 95.5894 49.032 95.4828 49.352ZM104.958 51.112C105.897 52.4347 106.366 53.544 106.366 54.44C106.366 55.3147 105.993 55.976 105.246 56.424C104.521 56.872 103.806 57.096 103.102 57.096C102.419 57.096 101.694 56.9573 100.926 56.68C100.158 56.3813 99.774 56.0293 99.774 55.624L99.806 55.528C99.7847 55.5493 99.806 55.5813 99.87 55.624C100.019 55.7093 100.371 55.8907 100.926 56.168C101.502 56.4453 102.067 56.584 102.622 56.584C103.198 56.584 103.721 56.4133 104.19 56.072C104.681 55.7307 104.926 55.2933 104.926 54.76C104.926 53.3733 103.977 51.6133 102.078 49.48C99.6673 55.0907 98.1313 58.7173 97.47 60.36C96.7873 62.024 96.2967 63.4213 95.998 64.552C95.678 65.704 95.518 66.9093 95.518 68.168C95.518 70.0667 96.1367 71.016 97.374 71.016C98.1847 71.016 99.166 70.664 100.318 69.96C100.105 70.344 99.6887 70.6747 99.07 70.952C98.4727 71.2507 97.9713 71.4 97.566 71.4C96.542 71.4 95.6353 70.9947 94.846 70.184C94.0353 69.3947 93.63 68.5093 93.63 67.528C93.63 66.5467 93.8327 65.544 94.238 64.52C94.622 63.496 95.1767 62.216 95.902 60.68C96.6273 59.144 98.5473 55.2293 101.662 48.936C100.489 47.2507 99.902 45.8213 99.902 44.648C99.902 43.4747 100.371 42.888 101.31 42.888C102.526 42.888 103.134 43.624 103.134 45.096C103.134 45.8213 102.921 46.8453 102.494 48.168C103.603 49.384 104.425 50.3653 104.958 51.112ZM102.142 47.88C102.505 47.0267 102.686 46.0453 102.686 44.936C102.686 43.8053 102.291 43.24 101.502 43.24C101.139 43.24 100.958 43.624 100.958 44.392C100.958 45.5867 101.353 46.7493 102.142 47.88ZM116.483 52.648C116.504 52.648 116.515 52.68 116.515 52.744C116.515 52.808 116.429 52.9893 116.259 53.288C115.597 54.3547 114.637 55.3467 113.379 56.264C112.12 57.16 110.936 57.608 109.827 57.608C108.312 57.608 107.555 56.6267 107.555 54.664C107.555 54.0027 107.629 53.2987 107.779 52.552C107.587 52.3813 107.416 52.1467 107.267 51.848C107.288 51.8693 107.341 51.9013 107.427 51.944C107.512 51.9653 107.587 51.9973 107.651 52.04C107.736 52.0613 107.821 52.0827 107.907 52.104C108.12 51.0587 108.771 49.9813 109.859 48.872C110.947 47.7627 112.003 47.208 113.027 47.208C113.261 47.208 113.379 47.24 113.379 47.304C113.379 47.3467 113.229 47.4533 112.931 47.624C112.141 48.0507 111.405 48.712 110.723 49.608C109.997 50.504 109.475 51.4 109.155 52.296L109.219 52.36C110.243 52.36 111.309 51.8693 112.419 50.888C113.528 49.9067 114.083 48.904 114.083 47.88C114.083 47.5813 113.997 47.304 113.827 47.048C113.677 46.7707 113.421 46.632 113.059 46.632C112.696 46.632 112.237 46.8027 111.683 47.144C111.149 47.464 110.851 47.624 110.786 47.624C110.744 47.624 110.723 47.6133 110.723 47.592C110.723 47.336 111.064 47.0693 111.747 46.792C112.451 46.5147 113.016 46.376 113.443 46.376C113.891 46.376 114.275 46.5147 114.595 46.792C114.915 47.0693 115.075 47.4533 115.075 47.944C115.075 49.0747 114.371 50.1413 112.963 51.144C111.576 52.1467 110.264 52.7013 109.027 52.808C108.856 53.32 108.771 53.8107 108.771 54.28C108.771 56.0507 109.411 56.936 110.691 56.936C111.672 56.936 112.653 56.552 113.635 55.784C114.616 54.9947 115.405 54.0987 116.003 53.096C116.195 52.7973 116.355 52.648 116.483 52.648Z" fill="black"/>
<path d="M24.635 8.56V12.256H15.515V40H11.435V12.256H2.315V8.56H24.635ZM35.3653 16C35.8133 16 36.1653 16.032 36.4213 16.096V20.704C35.9413 20.608 35.3173 20.56 34.5493 20.56C32.3093 20.56 30.5333 21.68 29.2213 23.92V40H25.1413V16.576H28.9813V20.08C29.8453 18.768 30.8053 17.76 31.8613 17.056C32.9493 16.352 34.1173 16 35.3653 16ZM57.0706 40H53.2306V36.64C52.3666 37.92 51.4066 38.896 50.3506 39.568C49.2946 40.24 48.1746 40.576 46.9906 40.576C45.0386 40.576 43.5026 39.904 42.3826 38.56C41.2946 37.184 40.7506 35.184 40.7506 32.56V16.576H44.8306V31.84C44.8306 33.536 45.0866 34.784 45.5986 35.584C46.1426 36.384 46.8786 36.784 47.8066 36.784C48.6706 36.784 49.5666 36.448 50.4946 35.776C51.4546 35.072 52.2866 34.112 52.9906 32.896V16.576H57.0706V40ZM72.4531 6.64C73.5091 6.64 74.5171 6.752 75.4771 6.976V10.24C74.5171 10.08 73.5251 10 72.5011 10C71.5091 10 70.7251 10.32 70.1491 10.96C69.6051 11.6 69.3331 12.576 69.3331 13.888V16.576H74.1331V19.936H69.3331V40H65.2531V19.936H61.8931V16.576H65.2531V14.128C65.2851 11.632 65.9091 9.76 67.1251 8.512C68.3411 7.264 70.1171 6.64 72.4531 6.64ZM86.9844 6.64C88.0404 6.64 89.0484 6.752 90.0084 6.976V10.24C89.0484 10.08 88.0564 10 87.0324 10C86.0404 10 85.2564 10.32 84.6804 10.96C84.1364 11.6 83.8644 12.576 83.8644 13.888V16.576H88.6644V19.936H83.8644V40H79.7844V19.936H76.4244V16.576H79.7844V14.128C79.8164 11.632 80.4404 9.76 81.6564 8.512C82.8724 7.264 84.6484 6.64 86.9844 6.64ZM97.19 7.216V40H93.11V7.216H97.19ZM111.571 16C114.259 16 116.307 16.736 117.715 18.208C119.123 19.68 119.827 21.808 119.827 24.592V29.536H107.491V32.368C107.491 34 107.875 35.184 108.643 35.92C109.443 36.624 110.691 36.976 112.387 36.976C114.051 36.976 116.131 36.72 118.627 36.208L118.723 39.76C115.747 40.304 113.619 40.576 112.339 40.576C109.171 40.576 106.883 39.888 105.475 38.512C104.099 37.136 103.411 35.008 103.411 32.128V24.592C103.411 21.808 104.083 19.68 105.427 18.208C106.803 16.736 108.851 16 111.571 16ZM111.571 19.408C110.323 19.408 109.331 19.808 108.595 20.608C107.859 21.376 107.491 22.496 107.491 23.968V26.272H115.747V24.112C115.747 22.576 115.363 21.408 114.595 20.608C113.859 19.808 112.851 19.408 111.571 19.408Z" fill="black"/>
</svg>
